# xmcd
#
# Track frame offsets:
#	150
#	14134
#	32981
#	48670
#	59996
#	72739
#	92224
#	107771
#	118630
#	135963
#
# Disc length: 1993 seconds
#
# Revision: 1
# Processed by: cddbd v1.4PL0 Copyright (c) Steve Scherf et al.
# Submitted via: CDmax 1.9
#
DISCID=9d07c70a
DTITLE=Bat McGrath - Back in Love Again
DYEAR=2002
DGENRE=Country
TTITLE0=I Believe In Love ( Bat McGrath)
TTITLE1=Back In Love Again (Bat McGrath - Tim Nichols)
TTITLE2=Why Didn't I Love You Right (Bat McGrath)
TTITLE3=That's All I Need To Know (Bat McGrath)
TTITLE4=Old Friends (Bat McGrath - Tim Nichols)
TTITLE5=One That Never Will (Bat McGrath - Wood Newton)
TTITLE6=Blue Eagle (Bat McGrath)
TTITLE7=You Loved Me Right (Bat McGrath)
TTITLE8=Beyond The Distance ( Bat McGrath - Billy Kirsch)
TTITLE9=We Were The Best (Bat McGrath)
EXTD=Produced by Monty Powell and Kip Raines\nRecorded at Midtown Studios, Nas
EXTD=hville, TN  by Jim Dineen \nMixed at Dajhalon Studios, Rochester, N.Y.  b
EXTD=y Mick Guzauski\n\n\nlead vocals, acoustic guitar: Bat McGrath\nelectricg
EXTD=uitar: Ethan Porter\nbass, acoustic guitar on "Beyond The Distance": Kevi
EXTD=n Vicalvi\ndrums: Kip Raines\nmandolin, fiddle: Eric Silver\npedal steel
EXTD=guitar: Buck Reid\nhammond organ, wurlitzer: Mark Prentiss\nbackground vo
EXTD=cals:  Ethan Porter, Kevin Vicalvi, Kip Raines,\n& Deborah Manning on "On
EXTD=e that Never Will"\n\nTHANKS FOR FINALLY RECORDING ANOTHER ALBUM BAT!!!!\
EXTD=n\nRon Nawojczyk\nRon.Nawojczyk@ifsna.com
EXTT0=
EXTT1=
EXTT2=
EXTT3=
EXTT4=
EXTT5=
EXTT6=
EXTT7=
EXTT8=
EXTT9=
PLAYORDER=
